# xmcd
#
# Track frame offsets:
#	150
#	7665
#	22749
#	38332
#	53789
#	72214
#	88517
#	99647
#	111312
#	123458
#	135943
#	159625
#	172978
#	184960
#	203361
#
# Disc length: 2883 seconds
#
# Revision: 0
# Processed by: cddbd v1.4PL0 Copyright (c) Steve Scherf et al.
# Submitted via: dBpowerAMP V4.0
#
DISCID=ad0b410f
DTITLE=C-weed Band - The Older Songs of the 80's vol 2
DYEAR=1980
DGENRE=Country
TTITLE0=Old Joe Clark
TTITLE1=Play Me My Favorite Song
TTITLE2=Hard Hearted Woman
TTITLE3=Magic in the Music
TTITLE4=Loving You
TTITLE5=Clovis
TTITLE6=Honky Tonkin
TTITLE7=Pickup Truck Cowboy
TTITLE8=Bringin Home The Good Times
TTITLE9=Evangeline
TTITLE10=Against The Wind
TTITLE11=High and Dry
TTITLE12=Memphis
TTITLE13=I Heard The Owl Cll My Name
TTITLE14=Cold Cold Heart
EXTD=
EXTT0=
EXTT1=
EXTT2=
EXTT3=
EXTT4=
EXTT5=
EXTT6=
EXTT7=
EXTT8=
EXTT9=
EXTT10=
EXTT11=
EXTT12=
EXTT13=
EXTT14=
PLAYORDER=
